<svg width="512" height="512" viewBox="0 0 512 512" fill="none" xmlns="http://www.w3.org/2000/svg">
<rect width="512" height="512" fill="#E05D38"/>
<path d="M212.48 154.295C218.195 154.295 223.854 155.421 229.134 157.608C234.414 159.795 239.212 163 243.253 167.042C247.294 171.083 250.5 175.88 252.687 181.16C254.874 186.441 256 192.1 256 197.815V316.123C255.983 322.83 254.612 329.463 251.969 335.627C249.327 341.791 245.466 347.357 240.62 351.993C235.774 356.628 230.042 360.237 223.767 362.604C217.492 364.97 210.804 366.045 204.104 365.765C197.403 365.484 190.829 363.853 184.774 360.969C178.719 358.086 173.309 354.01 168.868 348.985C164.427 343.96 161.046 338.09 158.928 331.727C156.81 325.364 156 318.638 156.544 311.954C146.176 300.8 139.63 279.04 139.63 260.846C139.63 236.087 151.79 212.005 169.198 202.533C168.535 196.454 169.16 190.304 171.034 184.483C172.907 178.662 175.986 173.302 180.069 168.75C184.153 164.199 189.15 160.56 194.734 158.069C200.319 155.578 206.365 154.292 212.48 154.295Z" stroke="white" stroke-width="20" stroke-linecap="round" stroke-linejoin="round"/>
<path d="M192.201 232.119C185.801 230.656 171.337 221.166 169.161 202.661M218.88 280.96C244.992 278.034 255.323 250.496 256 239.287M169.874 285.842C163.365 290.962 158.171 302.61 156.507 311.936M299.52 154.295C287.978 154.295 276.908 158.88 268.747 167.042C260.585 175.203 256 186.273 256 197.815V316.123C256.017 322.83 257.388 329.463 260.031 335.627C262.673 341.791 266.534 347.357 271.38 351.993C276.226 356.628 281.958 360.237 288.233 362.604C294.508 364.97 301.196 366.045 307.896 365.765C314.597 365.484 321.171 363.853 327.226 360.969C333.281 358.086 338.691 354.01 343.132 348.985C347.573 343.96 350.954 338.09 353.072 331.727C355.19 325.364 356 318.638 355.456 311.954C365.824 300.8 372.352 279.04 372.352 260.846C372.352 236.087 360.21 212.023 342.802 202.533C342.961 200.997 343.04 199.424 343.04 197.815C343.04 192.1 341.914 186.441 339.727 181.16C337.54 175.88 334.334 171.083 330.293 167.042C326.252 163 321.454 159.795 316.174 157.608C310.894 155.421 305.235 154.295 299.52 154.295Z" stroke="white" stroke-width="20" stroke-linecap="round" stroke-linejoin="round"/>
<path d="M319.799 232.119C326.199 230.656 340.663 221.166 342.839 202.661M293.12 280.96C267.008 278.034 256.677 250.496 256 239.287M342.126 285.842C348.635 290.962 353.829 302.61 355.493 311.936" stroke="white" stroke-width="20" stroke-linecap="round" stroke-linejoin="round"/>
<path d="M384.106 148.822H362.194C359.367 148.822 357.275 147.532 355.917 144.952C354.56 142.371 354.709 139.877 356.363 137.47L409.198 59.9833C410.376 58.3015 411.908 57.1314 413.793 56.473C415.678 55.8147 417.621 55.8435 419.624 56.5595C421.627 57.2755 423.099 58.5369 424.042 60.3437C424.984 62.1506 425.338 64.0727 425.102 66.1102L419.447 112.782H446.837C449.9 112.782 452.051 114.164 453.29 116.927C454.53 119.69 454.146 122.273 452.138 124.675L394.001 195.674C392.706 197.236 391.115 198.257 389.23 198.738C387.346 199.218 385.52 199.038 383.752 198.197C381.985 197.356 380.602 196.066 379.603 194.327C378.604 192.587 378.22 190.694 378.451 188.647L384.106 148.822Z" fill="white"/>
</svg>
